<svg width="200" height="60" viewBox="0 0 200 60" fill="none" xmlns="http://www.w3.org/2000/svg">
<path d="M78.6885 59.5325L90.8614 28.1679H95.251L107.493 59.5325H102.988L99.7565 51.147H86.3327L83.1708 59.5325H78.6885ZM87.4562 47.7881H98.5288C96.7065 42.6379 94.8688 37.5186 93.0156 32.4302C91.1471 37.5958 89.2939 42.7151 87.4562 47.7881Z" fill="white"/>
<path d="M120.466 59.9957C119.098 60.0362 117.739 59.7772 116.483 59.237C115.226 58.6968 114.103 57.8885 113.192 56.8685C111.225 54.5532 110.214 51.5752 110.366 48.5409C110.313 46.4733 110.708 44.4188 111.524 42.5182C112.285 40.825 113.525 39.3917 115.091 38.3949C116.75 37.3512 118.68 36.8195 120.639 36.8661C122.197 36.8338 123.732 37.2348 125.075 38.0243C126.207 38.6503 127.123 39.6029 127.704 40.7577V27.5309H131.689V53.7993C131.689 55.1196 131.689 57.0307 131.839 59.5324H127.809L127.716 55.7798C127.198 57.0205 126.297 58.0634 125.145 58.7564C123.739 59.6173 122.113 60.0482 120.466 59.9957ZM121.045 56.7759C122.006 56.8237 122.964 56.638 123.837 56.2346C124.711 55.8311 125.473 55.2221 126.06 54.4594C127.322 52.6525 127.946 50.476 127.832 48.2746C127.925 46.1566 127.296 44.0699 126.048 42.3561C125.47 41.605 124.72 41.0029 123.862 40.6C123.004 40.1971 122.062 40.0049 121.114 40.0396C120.172 39.9988 119.235 40.1885 118.383 40.5922C117.531 40.9958 116.791 41.6013 116.226 42.3561C114.985 44.1283 114.369 46.2639 114.478 48.4251C114.371 50.5648 114.969 52.6804 116.18 54.4479C116.735 55.1981 117.465 55.8006 118.308 56.2025C119.15 56.6044 120.078 56.7933 121.01 56.7527L121.045 56.7759Z" fill="white"/>
<path d="M139.078 59.5325V37.4337H143.028V59.5325H139.078ZM139.078 31.851V28.1679H143.004V31.851H139.078Z" fill="white"/>
<path d="M161.733 59.5324H159.903C156.776 59.5324 154.633 58.9726 153.475 57.853C152.316 56.6948 151.749 54.7722 151.749 51.8766V40.0744H147.498V37.4336H151.83V31.7468L155.71 30.5886V37.4221H161.698V40.0744H155.71V52.1198C155.693 52.7647 155.748 53.4095 155.872 54.0425C155.963 54.471 156.132 54.8793 156.37 55.247C156.64 55.6162 157.029 55.8819 157.471 55.9999C158.026 56.1631 158.596 56.2718 159.173 56.3242C160.024 56.4033 160.878 56.4381 161.733 56.4284V59.5324Z" fill="white"/>
<path d="M176.558 59.9957C175.01 60.0218 173.475 59.7054 172.064 59.0691C170.782 58.5007 169.649 57.6447 168.752 56.5674C167.881 55.4769 167.218 54.2365 166.794 52.9074C166.315 51.4819 166.076 49.9868 166.088 48.483C166.07 46.4825 166.502 44.5036 167.35 42.6919C168.162 40.9811 169.433 39.5295 171.022 38.4992C172.687 37.4358 174.629 36.8878 176.604 36.924C178.108 36.9109 179.587 37.3115 180.878 38.0822C182.097 38.7779 183.106 39.7904 183.797 41.0125V37.5379H187.642V59.5324H183.704V55.7566C183.092 57.0528 182.109 58.1374 180.878 58.8723C179.57 59.6402 178.074 60.0291 176.558 59.9957ZM177.114 56.7759C178.077 56.8286 179.039 56.6452 179.915 56.2414C180.791 55.8377 181.555 55.226 182.141 54.4594C183.38 52.6476 183.991 50.4787 183.878 48.2861C183.977 46.1621 183.352 44.0674 182.106 42.3445C181.514 41.5822 180.747 40.9738 179.87 40.5706C178.993 40.1674 178.032 39.9813 177.068 40.028C176.074 39.9705 175.08 40.1506 174.17 40.5534C173.26 40.9563 172.458 41.5702 171.832 42.3445C170.563 44.075 169.925 46.1885 170.026 48.3325C169.92 50.5129 170.557 52.6647 171.832 54.4363C172.465 55.2149 173.274 55.8313 174.193 56.2342C175.111 56.6371 176.113 56.8149 177.114 56.7527V56.7759Z" fill="white"/>
<path d="M195.101 59.5324V27.5309H199.062V59.5324H195.101Z" fill="white"/>
<path d="M67.9981 1.38986C67.9981 1.61894 67.9302 1.84287 67.8029 2.03333C67.6757 2.2238 67.4948 2.37225 67.2832 2.45992C67.0715 2.54758 66.8386 2.57052 66.614 2.52583C66.3893 2.48114 66.1829 2.37083 66.0209 2.20885C65.859 2.04687 65.7486 1.84049 65.704 1.61582C65.6593 1.39115 65.6822 1.15827 65.7699 0.946631C65.8575 0.734995 66.006 0.554105 66.1964 0.426839C66.3869 0.299572 66.6108 0.231644 66.8399 0.231644C67.1471 0.231644 67.4417 0.35367 67.6589 0.570878C67.8761 0.788086 67.9981 1.08268 67.9981 1.38986Z" fill="#8CE5E2"/>
<path d="M67.9981 1.38986H67.7664C67.7664 1.63561 67.6688 1.87128 67.4951 2.04505C67.3213 2.21882 67.0856 2.31644 66.8399 2.31644C66.5941 2.31644 66.3585 2.21882 66.1847 2.04505C66.0109 1.87128 65.9133 1.63561 65.9133 1.38986C65.9133 1.14412 66.0109 0.908442 66.1847 0.734675C66.3585 0.560909 66.5941 0.463288 66.8399 0.463288C67.0856 0.463288 67.3213 0.560909 67.4951 0.734675C67.6688 0.908442 67.7664 1.14412 67.7664 1.38986H68.2297C68.2297 1.02125 68.0833 0.667731 67.8227 0.407081C67.562 0.146432 67.2085 0 66.8399 0C66.4713 0 66.1177 0.146432 65.8571 0.407081C65.5964 0.667731 65.45 1.02125 65.45 1.38986C65.4516 1.76914 65.5951 2.13408 65.8524 2.41277C66.1096 2.69146 66.4619 2.8637 66.8399 2.89555C67.0241 2.90202 67.2078 2.87049 67.3793 2.80294C67.5509 2.73538 67.7067 2.63324 67.8371 2.50286C67.9674 2.37249 68.0696 2.21668 68.1371 2.04512C68.2047 1.87357 68.2362 1.68995 68.2297 1.50568H67.9981V1.38986Z" fill="#8CE5E2"/>
<path d="M32.7883 26.2916C30.9776 24.5004 28.8229 23.0946 26.4541 22.159C24.0852 21.2234 21.5514 20.7774 19.0055 20.8479C16.4765 20.7743 13.9592 21.2193 11.6087 22.1555C9.25819 23.0917 7.1243 24.4993 5.3385 26.2916C1.81237 30.0488 -0.100394 35.0387 0.0106975 40.1902C-0.074741 42.7627 0.352296 45.3266 1.26696 47.7326C2.18163 50.1385 3.56565 52.3386 5.3385 54.2046C7.14229 56.0052 9.29584 57.4172 11.6663 58.3534C14.0368 59.2896 16.574 59.7303 19.1213 59.6483H19.3529V55.1312H19.1213C17.228 55.1672 15.3473 54.8159 13.5946 54.0989C11.8419 53.3819 10.2542 52.3143 8.92898 50.9616C6.22416 48.0375 4.7694 44.172 4.87522 40.1902C4.7913 36.2121 6.24307 32.3545 8.92898 29.4188C10.2466 28.056 11.8329 26.9817 13.5874 26.264C15.3419 25.5462 17.2263 25.2007 19.1213 25.2492C21.03 25.2273 22.924 25.5847 24.6934 26.3004C26.4629 27.0162 28.0727 28.0761 29.4294 29.4188C32.1343 32.3428 33.589 36.2083 33.4832 40.1902L33.7149 51.1933V58.1426H38.3477V40.1902C38.2671 35.0312 36.2878 30.083 32.7883 26.2916Z" fill="#8CE5E2"/>
<path d="M64.4076 5.90691V28.2605C62.8912 25.9116 60.7933 23.9947 58.3174 22.6958C55.8415 21.397 53.0719 20.7605 50.2774 20.8479H50.0457V25.365H50.2774C52.186 25.3431 54.08 25.7005 55.8495 26.4162C57.619 27.132 59.2288 28.1919 60.5855 29.5346C63.2695 32.4251 64.7233 36.2466 64.6393 40.1902C64.7451 44.172 63.2903 48.0375 60.5855 50.9616C59.2583 52.3196 57.6728 53.3984 55.9224 54.1344C54.172 54.8703 52.292 55.2486 50.3932 55.247H50.1615V59.7641H50.3932C52.9029 59.8219 55.3982 59.3692 57.7276 58.4334C60.057 57.4976 62.1721 56.0984 63.9443 54.3205C65.6867 52.5041 67.054 50.3622 67.9682 48.0171C68.8824 45.6721 69.3254 43.1698 69.2721 40.6535V5.90691H64.4076Z" fill="white"/>
</svg>
